<svg id="app-store-icon" xmlns="http://www.w3.org/2000/svg" xmlns:xlink="http://www.w3.org/1999/xlink" width="134.927" height="39.989" viewBox="0 0 134.927 39.989">
  <defs>
    <linearGradient id="linear-gradient" x1="0.5" y1="0.023" x2="0.5" y2="0.924" gradientUnits="objectBoundingBox">
      <stop offset="0" stop-color="#1a1a1a" stop-opacity="0.102"/>
      <stop offset="0.123" stop-color="#212121" stop-opacity="0.149"/>
      <stop offset="0.308" stop-color="#353535" stop-opacity="0.227"/>
      <stop offset="0.532" stop-color="#575757" stop-opacity="0.318"/>
      <stop offset="0.783" stop-color="#858585" stop-opacity="0.42"/>
      <stop offset="1" stop-color="#b3b3b3" stop-opacity="0.51"/>
    </linearGradient>
  </defs>
  <path id="Path_5889" data-name="Path 5889" d="M134.032,35.268A3.83,3.83,0,0,1,130.2,39.1H4.729A3.835,3.835,0,0,1,.89,35.268V4.725A3.84,3.84,0,0,1,4.729.89H130.2a3.834,3.834,0,0,1,3.834,3.835V35.268Z" fill="#fff"/>
  <path id="Path_5890" data-name="Path 5890" d="M130.2,39.989H4.729A4.73,4.73,0,0,1,0,35.268V4.726A4.733,4.733,0,0,1,4.729,0H130.2a4.735,4.735,0,0,1,4.729,4.726V35.268a4.729,4.729,0,0,1-4.728,4.721Z" fill="#a6a6a6"/>
  <path id="Path_5891" data-name="Path 5891" d="M134.032,35.268A3.83,3.83,0,0,1,130.2,39.1H4.729A3.835,3.835,0,0,1,.89,35.268V4.725A3.84,3.84,0,0,1,4.729.89H130.2a3.834,3.834,0,0,1,3.834,3.835V35.268Z"/>
  <path id="Path_5892" data-name="Path 5892" d="M30.128,19.784a5.8,5.8,0,0,1,2.761-4.864,5.937,5.937,0,0,0-4.676-2.528c-1.967-.207-3.875,1.177-4.877,1.177-1.022,0-2.565-1.157-4.228-1.123a6.225,6.225,0,0,0-5.24,3.2c-2.266,3.923-.576,9.688,1.6,12.859,1.086,1.554,2.355,3.287,4.016,3.226,1.625-.066,2.232-1.035,4.193-1.035,1.943,0,2.513,1.035,4.207,1,1.744-.027,2.842-1.56,3.89-3.127a12.819,12.819,0,0,0,1.779-3.623A5.608,5.608,0,0,1,30.128,19.784Z" fill="#fff"/>
  <path id="Path_5893" data-name="Path 5893" d="M26.928,10.306a5.706,5.706,0,0,0,1.306-4.089,5.812,5.812,0,0,0-3.758,1.944,5.43,5.43,0,0,0-1.34,3.938A4.8,4.8,0,0,0,26.928,10.306Z" fill="#fff"/>
  <path id="Path_5894" data-name="Path 5894" d="M130.2,0h-67.2L89.316,39.989H130.2a4.733,4.733,0,0,0,4.729-4.724V4.726A4.734,4.734,0,0,0,130.2,0Z" fill="url(#linear-gradient)"/>
  <g id="Group_3177" data-name="Group 3177">
    <path id="Path_5895" data-name="Path 5895" d="M53.665,31.5H51.394L50.15,27.595H45.826L44.641,31.5H42.43L46.715,18.2h2.646Zm-3.89-5.549L48.65,22.48q-.178-.532-.671-2.507h-.04q-.2.849-.632,2.507L46.2,25.955Z" fill="#fff"/>
    <path id="Path_5896" data-name="Path 5896" d="M64.663,26.588a5.434,5.434,0,0,1-1.33,3.869,3.9,3.9,0,0,1-2.958,1.264,2.961,2.961,0,0,1-2.74-1.361v5.035H55.5V25.062q0-1.537-.079-3.154H57.3l.119,1.521h.04a3.793,3.793,0,0,1,6.071-.377A5.306,5.306,0,0,1,64.663,26.588Zm-2.172.078a3.956,3.956,0,0,0-.632-2.311A2.184,2.184,0,0,0,60,23.408a2.217,2.217,0,0,0-1.431.523,2.426,2.426,0,0,0-.839,1.373,2.784,2.784,0,0,0-.1.649v1.6a2.567,2.567,0,0,0,.642,1.768,2.131,2.131,0,0,0,1.668.721,2.185,2.185,0,0,0,1.875-.928A4.084,4.084,0,0,0,62.491,26.666Z" fill="#fff"/>
    <path id="Path_5897" data-name="Path 5897" d="M75.7,26.588a5.434,5.434,0,0,1-1.33,3.869,3.9,3.9,0,0,1-2.959,1.264,2.961,2.961,0,0,1-2.74-1.361v5.035H66.539V25.062q0-1.537-.079-3.154h1.875l.119,1.521h.04a3.794,3.794,0,0,1,6.072-.377A5.312,5.312,0,0,1,75.7,26.588Zm-2.173.078a3.956,3.956,0,0,0-.633-2.311,2.181,2.181,0,0,0-1.854-.947,2.226,2.226,0,0,0-1.433.523,2.424,2.424,0,0,0-.838,1.373,2.849,2.849,0,0,0-.1.649v1.6a2.576,2.576,0,0,0,.641,1.768,2.136,2.136,0,0,0,1.67.721,2.183,2.183,0,0,0,1.875-.928A4.084,4.084,0,0,0,73.527,26.666Z" fill="#fff"/>
    <path id="Path_5898" data-name="Path 5898" d="M88.04,27.771a3.555,3.555,0,0,1-1.183,2.765A5.244,5.244,0,0,1,83.232,31.7a6.327,6.327,0,0,1-3.446-.829l.493-1.777a5.931,5.931,0,0,0,3.08.83,2.906,2.906,0,0,0,1.875-.543,1.774,1.774,0,0,0,.673-1.45,1.858,1.858,0,0,0-.554-1.363,5.136,5.136,0,0,0-1.836-1.026q-3.5-1.3-3.5-3.812a3.366,3.366,0,0,1,1.234-2.685A4.879,4.879,0,0,1,84.523,18a6.458,6.458,0,0,1,3.021.632l-.535,1.738a5.282,5.282,0,0,0-2.557-.612,2.6,2.6,0,0,0-1.764.553,1.583,1.583,0,0,0-.535,1.206,1.63,1.63,0,0,0,.613,1.3A6.906,6.906,0,0,0,84.7,23.845a6.556,6.556,0,0,1,2.527,1.618A3.372,3.372,0,0,1,88.04,27.771Z" fill="#fff"/>
    <path id="Path_5899" data-name="Path 5899" d="M95.107,23.508h-2.35v4.659q0,1.777,1.244,1.776a3.745,3.745,0,0,0,.947-.1l.059,1.619a4.83,4.83,0,0,1-1.658.236,2.555,2.555,0,0,1-1.975-.771,3.781,3.781,0,0,1-.711-2.587V23.5h-1.4V21.9h1.4V20.147l2.094-.632V21.9h2.35v1.6Z" fill="#fff"/>
    <path id="Path_5900" data-name="Path 5900" d="M105.689,26.627a5.264,5.264,0,0,1-1.264,3.633,4.506,4.506,0,0,1-3.514,1.461,4.3,4.3,0,0,1-3.367-1.4,5.1,5.1,0,0,1-1.254-3.534,5.221,5.221,0,0,1,1.293-3.652,4.482,4.482,0,0,1,3.486-1.422,4.385,4.385,0,0,1,3.395,1.4A5.038,5.038,0,0,1,105.689,26.627Zm-2.21.049a4.3,4.3,0,0,0-.571-2.264,2.11,2.11,0,0,0-1.916-1.143,2.141,2.141,0,0,0-1.955,1.143,4.368,4.368,0,0,0-.572,2.3,4.284,4.284,0,0,0,.572,2.265,2.186,2.186,0,0,0,3.853-.019A4.314,4.314,0,0,0,103.479,26.676Z" fill="#fff"/>
    <path id="Path_5901" data-name="Path 5901" d="M112.622,23.783a3.71,3.71,0,0,0-.672-.059,2.012,2.012,0,0,0-1.738.85,3.2,3.2,0,0,0-.532,1.9V31.5h-2.132V24.93q0-1.657-.062-3.021h1.857l.078,1.836h.059a3.292,3.292,0,0,1,1.066-1.521,2.578,2.578,0,0,1,1.541-.514,3.423,3.423,0,0,1,.533.039l0,2.034Z" fill="#fff"/>
    <path id="Path_5902" data-name="Path 5902" d="M122.157,26.252a5,5,0,0,1-.078.967h-6.4a2.783,2.783,0,0,0,.928,2.174,3.173,3.173,0,0,0,2.092.67,7.074,7.074,0,0,0,2.588-.453l.334,1.479a8,8,0,0,1-3.217.593A4.664,4.664,0,0,1,114.9,30.37a4.851,4.851,0,0,1-1.273-3.524,5.5,5.5,0,0,1,1.186-3.612A4.086,4.086,0,0,1,118.17,21.7a3.576,3.576,0,0,1,3.141,1.539A5.179,5.179,0,0,1,122.157,26.252Zm-2.033-.553a2.886,2.886,0,0,0-.414-1.639,1.862,1.862,0,0,0-1.7-.89,2.021,2.021,0,0,0-1.7.869,3.185,3.185,0,0,0-.631,1.658l4.44,0Z" fill="#fff"/>
  </g>
  <g id="Group_3178" data-name="Group 3178">
    <path id="Path_5903" data-name="Path 5903" d="M48.747,13.433H47.63l-.611-1.921H44.894l-.583,1.921H43.224L45.33,6.892h1.3Zm-1.912-2.727L46.282,9c-.058-.175-.165-.582-.33-1.232h-.02c-.068.281-.165.689-.311,1.232l-.543,1.708Z" fill="#fff"/>
    <path id="Path_5904" data-name="Path 5904" d="M54.013,8.717l-1.786,4.716H51.208L49.48,8.717h1.126l.806,2.494c.136.417.252.815.339,1.193h.029c.078-.339.194-.737.339-1.193l.8-2.494h1.1Z" fill="#fff"/>
    <path id="Path_5905" data-name="Path 5905" d="M57.815,13.433l-.078-.543h-.029a1.608,1.608,0,0,1-1.378.65,1.373,1.373,0,0,1-1.446-1.388c0-1.164,1.009-1.766,2.756-1.766V10.3c0-.621-.33-.932-.98-.932a2.2,2.2,0,0,0-1.232.35l-.213-.689a3.019,3.019,0,0,1,1.621-.408c1.232,0,1.854.65,1.854,1.951v1.737a7,7,0,0,0,.068,1.126Zm-.146-2.349c-1.165,0-1.747.282-1.747.951a.668.668,0,0,0,.718.737,1,1,0,0,0,1.029-.96v-.728Z" fill="#fff"/>
    <path id="Path_5906" data-name="Path 5906" d="M61.024,7.94a.627.627,0,1,1,.66-.631A.616.616,0,0,1,61.024,7.94Zm.544,5.493H60.52V8.717h1.048Z" fill="#fff"/>
    <path id="Path_5907" data-name="Path 5907" d="M64.478,13.433H63.43V6.553h1.048Z" fill="#fff"/>
    <path id="Path_5908" data-name="Path 5908" d="M68.932,13.433l-.078-.543h-.029a1.608,1.608,0,0,1-1.378.65A1.373,1.373,0,0,1,66,12.152c0-1.164,1.009-1.766,2.756-1.766V10.3c0-.621-.33-.932-.98-.932a2.2,2.2,0,0,0-1.232.35l-.214-.69a3.019,3.019,0,0,1,1.621-.408c1.232,0,1.854.65,1.854,1.951v1.737a7.267,7.267,0,0,0,.067,1.126Zm-.146-2.349c-1.165,0-1.747.282-1.747.951a.668.668,0,0,0,.718.737,1,1,0,0,0,1.029-.96Z" fill="#fff"/>
    <path id="Path_5909" data-name="Path 5909" d="M74.052,13.54a1.6,1.6,0,0,1-1.483-.835h-.021l-.06.728H71.6c.029-.378.039-.806.039-1.271V6.553h1.049V9.407h.02a1.618,1.618,0,0,1,1.5-.786c1.136,0,1.932.971,1.932,2.387A2.269,2.269,0,0,1,74.052,13.54Zm-.213-4.1A1.206,1.206,0,0,0,72.684,10.7v.825A1.155,1.155,0,0,0,73.821,12.7c.785,0,1.252-.64,1.252-1.659C75.072,10.1,74.586,9.444,73.839,9.444Z" fill="#fff"/>
    <path id="Path_5910" data-name="Path 5910" d="M78.736,13.433H77.689V6.553h1.047Z" fill="#fff"/>
    <path id="Path_5911" data-name="Path 5911" d="M84.441,11.327H81.295a1.354,1.354,0,0,0,1.485,1.4,3.538,3.538,0,0,0,1.271-.223l.163.728a3.932,3.932,0,0,1-1.581.291,2.19,2.19,0,0,1-2.349-2.377A2.3,2.3,0,0,1,82.515,8.61a1.982,1.982,0,0,1,1.961,2.242A1.973,1.973,0,0,1,84.441,11.327Zm-.961-.747c0-.728-.369-1.242-1.039-1.242a1.245,1.245,0,0,0-1.146,1.242Z" fill="#fff"/>
    <path id="Path_5912" data-name="Path 5912" d="M90.793,13.54a2.245,2.245,0,0,1-2.271-2.426,2.3,2.3,0,0,1,2.35-2.494,2.227,2.227,0,0,1,2.271,2.417A2.311,2.311,0,0,1,90.793,13.54Zm.04-4.154c-.757,0-1.242.708-1.242,1.7,0,.971.5,1.679,1.232,1.679s1.231-.757,1.231-1.7C92.055,10.1,91.57,9.386,90.833,9.386Z" fill="#fff"/>
    <path id="Path_5913" data-name="Path 5913" d="M98.777,13.433H97.73V10.725c0-.834-.32-1.252-.951-1.252a1.089,1.089,0,0,0-1.049,1.155v2.805H94.683V10.065c0-.417-.011-.864-.039-1.349h.922l.049.728h.029a1.692,1.692,0,0,1,1.494-.825c.989,0,1.639.757,1.639,1.989v2.825Z" fill="#fff"/>
    <path id="Path_5914" data-name="Path 5914" d="M105.634,9.5h-1.153v2.29q0,.875.61.874a2.074,2.074,0,0,0,.466-.049l.029.8a2.335,2.335,0,0,1-.814.117c-.826,0-1.319-.456-1.319-1.65V9.5h-.688V8.717h.688V7.853l1.028-.311V8.716h1.153Z" fill="#fff"/>
    <path id="Path_5915" data-name="Path 5915" d="M111.184,13.433h-1.049V10.745c0-.844-.32-1.271-.951-1.271a1.026,1.026,0,0,0-1.047,1.116v2.843h-1.049V6.553h1.049V9.386h.02a1.587,1.587,0,0,1,1.417-.767c1,0,1.61.776,1.61,2.009Z" fill="#fff"/>
    <path id="Path_5916" data-name="Path 5916" d="M116.539,11.327h-3.145a1.352,1.352,0,0,0,1.484,1.4,3.534,3.534,0,0,0,1.271-.223l.164.728a3.937,3.937,0,0,1-1.582.291,2.19,2.19,0,0,1-2.349-2.377,2.3,2.3,0,0,1,2.231-2.533,1.982,1.982,0,0,1,1.961,2.242A2.026,2.026,0,0,1,116.539,11.327Zm-.961-.747c0-.728-.368-1.242-1.038-1.242a1.243,1.243,0,0,0-1.146,1.242Z" fill="#fff"/>
  </g>
</svg>
