<?xml version="1.0" encoding="utf-8"?>
<!-- Generator: Adobe Illustrator 24.3.0, SVG Export Plug-In . SVG Version: 6.00 Build 0)  -->
<svg version="1.1" id="Layer_1" xmlns="http://www.w3.org/2000/svg" xmlns:xlink="http://www.w3.org/1999/xlink" x="0px" y="0px"
	 viewBox="0 0 100 100" style="enable-background:new 0 0 100 100;" xml:space="preserve">
<style type="text/css">
	.st0{fill:#FFD066;}
	.st1{fill:#FEC252;}
	.st2{fill:#F8F6F6;}
	.st3{fill:#DDDAEC;}
	.st4{fill:#89B1DE;}
	.st5{fill:#6F9CD2;}
	.st6{fill:#E5F5FD;}
	.st7{fill:#D3EEFA;}
	.st8{fill:#26467E;}
	.st9{fill:#20386B;}
</style>
<g>
	<path class="st0" d="M80.8,19.7H64v-7.4c0-0.9,0.7-1.6,1.6-1.6h13.6c0.9,0,1.6,0.7,1.6,1.6V19.7z"/>
	<path class="st1" d="M79.2,10.6h-3.7c0.9,0,1.6,0.7,1.6,1.6c0,0,0,0,0,0v7.4h3.7v-7.4C80.8,11.4,80.1,10.6,79.2,10.6z"/>
	<circle class="st2" cx="72.4" cy="36.3" r="20.6"/>
	<path class="st3" d="M72.4,15.7c-0.7,0-1.5,0-2.2,0.1c10.4,1.1,18.5,9.9,18.5,20.5c0,10.7-8.1,19.4-18.5,20.5
		c0.7,0.1,1.4,0.1,2.2,0.1c11.4,0,20.6-9.2,20.6-20.6S83.8,15.7,72.4,15.7z"/>
	<path class="st4" d="M90.7,80.2H17.6c-0.6,0-1.2-0.5-1.2-1.2V45.9c0-1,0.8-1.9,1.9-1.9h53.5c0.9,0,1.8,0.4,2.5,1.1l17.8,19.5
		c0.6,0.6,0.9,1.4,0.9,2.3v11C93,79.1,92,80.2,90.7,80.2L90.7,80.2z"/>
	<path class="st5" d="M92.2,64.7L74.3,45.2c-0.6-0.7-1.5-1.1-2.5-1.1h-3.8c0.9,0,1.8,0.4,2.5,1.1l17.8,19.5c0.6,0.6,0.9,1.4,0.9,2.3
		v11c0,1.3-1,2.3-2.3,2.3h3.8c1.3,0,2.3-1,2.3-2.3v-11C93,66.1,92.7,65.3,92.2,64.7z"/>
	<path class="st6" d="M74.3,45.2c-0.6-0.7-1.5-1.1-2.5-1.1h-7.2v16.7c0,0.7,0.6,1.3,1.3,1.3h23.8L74.3,45.2z"/>
	<path class="st7" d="M70.5,45.2l15.5,17h3.8l-15.5-17c-0.6-0.7-1.5-1.1-2.5-1.1h-3.8C69,44.1,69.9,44.5,70.5,45.2L70.5,45.2z"/>
	<circle class="st8" cx="78.1" cy="80.7" r="8.7"/>
	<path class="st9" d="M78.1,72c-0.5,0-1,0-1.4,0.1c4.1,0.7,7.2,4.3,7.2,8.6c0,4.3-3.1,7.9-7.2,8.6c0.5,0.1,1,0.1,1.4,0.1
		c4.8,0,8.7-3.9,8.7-8.7C86.8,75.9,82.9,72,78.1,72z"/>
	<circle class="st2" cx="78.1" cy="80.7" r="2.9"/>
	<path class="st3" d="M78.1,77.8c-0.4,0-0.8,0.1-1.2,0.3c1,0.5,1.7,1.5,1.7,2.6c0,1.2-0.7,2.2-1.7,2.6c0.4,0.2,0.8,0.3,1.2,0.3
		c1.6,0,2.9-1.3,2.9-2.9S79.7,77.8,78.1,77.8z"/>
	<circle class="st8" cx="34.9" cy="80.7" r="8.7"/>
	<path class="st9" d="M34.9,72c-0.5,0-1,0-1.4,0.1c4.1,0.7,7.2,4.3,7.2,8.6c0,4.3-3.1,7.9-7.2,8.6c0.5,0.1,1,0.1,1.4,0.1
		c4.8,0,8.7-3.9,8.7-8.7C43.5,75.9,39.7,72,34.9,72z"/>
	<circle class="st2" cx="34.9" cy="80.7" r="2.9"/>
	<path class="st3" d="M34.9,77.8c-0.4,0-0.8,0.1-1.2,0.3c1,0.5,1.7,1.5,1.7,2.6c0,1.2-0.7,2.2-1.7,2.6c0.4,0.2,0.8,0.3,1.2,0.3
		c1.6,0,2.9-1.3,2.9-2.9S36.5,77.8,34.9,77.8z"/>
	<path class="st2" d="M32.2,65l-1-1l6.2-6l-6.2-6l1-1c1.4-1.4,3.7-1.5,5.1-0.1l5.4,5.3c0.3,0.3,0.5,0.6,0.6,1c0.4,1,0.1,2-0.6,2.7
		l-5.4,5.3C35.9,66.5,33.6,66.5,32.2,65L32.2,65z"/>
	<path d="M72.4,23.5c0.7,0,1.3-0.6,1.3-1.3v-1.7c0-0.7-0.6-1.3-1.3-1.3s-1.3,0.6-1.3,1.3v1.7C71.1,22.9,71.7,23.5,72.4,23.5
		L72.4,23.5z M86.5,35c-0.7,0-1.3,0.6-1.3,1.3c0,0.7,0.6,1.3,1.3,1.3h1.7c0.7,0,1.3-0.6,1.3-1.3c0-0.7-0.6-1.3-1.3-1.3H86.5z
		 M56.5,35c-0.7,0-1.3,0.6-1.3,1.3c0,0.7,0.6,1.3,1.3,1.3h1.7c0.7,0,1.3-0.6,1.3-1.3c0-0.7-0.6-1.3-1.3-1.3H56.5z M78.1,76.5
		c-2.3,0-4.2,1.9-4.2,4.2s1.9,4.2,4.2,4.2c2.3,0,4.2-1.9,4.2-4.2S80.4,76.5,78.1,76.5z M78.1,82.3c-0.9,0-1.6-0.7-1.6-1.6
		c0-0.9,0.7-1.6,1.6-1.6c0.9,0,1.6,0.7,1.6,1.6C79.7,81.5,79,82.3,78.1,82.3z M30.7,80.7c0,2.3,1.9,4.2,4.2,4.2
		c2.3,0,4.2-1.9,4.2-4.2s-1.9-4.2-4.2-4.2S30.7,78.4,30.7,80.7z M36.4,80.7c0,0.9-0.7,1.6-1.6,1.6c-0.9,0-1.6-0.7-1.6-1.6
		c0-0.9,0.7-1.6,1.6-1.6C35.7,79.1,36.4,79.8,36.4,80.7z M43.7,60.7c1.5-1.4,1.6-3.9,0-5.5L38.3,50c-1.9-1.9-5.1-1.9-7,0.1l-1,1
		c-0.5,0.5-0.5,1.3,0,1.8l5.2,5.1l-5.2,5.1c-0.5,0.5-0.5,1.3,0,1.8l1,1c1.9,2,5,2,7,0.1L43.7,60.7z M33.1,64.1L33,64l5.2-5.1
		c0.5-0.5,0.5-1.3,0-1.8c0,0,0,0,0,0L33,52l0.1-0.1c0.9-0.9,2.4-0.9,3.3,0l5.4,5.3c0.6,0.6,0.5,1.4,0,1.8l-5.4,5.3
		C35.5,65.1,34,65,33.1,64.1L33.1,64.1z M71.1,36.3c0,0.7,0.6,1.3,1.3,1.3h4.4c0.7,0,1.3-0.6,1.3-1.3c0-0.7-0.6-1.3-1.3-1.3h-3.1
		v-8.1c0-0.7-0.6-1.3-1.3-1.3s-1.3,0.6-1.3,1.3V36.3z M27.9,25.2h22.4c0.7,0,1.3-0.6,1.3-1.3s-0.6-1.3-1.3-1.3H27.9
		c-0.7,0-1.3,0.6-1.3,1.3S27.1,25.2,27.9,25.2z M22.4,31.9h23.2c0.7,0,1.3-0.6,1.3-1.3s-0.6-1.3-1.3-1.3H22.4
		c-0.7,0-1.3,0.6-1.3,1.3S21.7,31.9,22.4,31.9z M35.7,35.3c-0.7,0-1.3,0.6-1.3,1.3c0,0.7,0.6,1.3,1.3,1.3h11.6
		c0.7,0,1.3-0.6,1.3-1.3c0-0.7-0.6-1.3-1.3-1.3H35.7z M24.8,35.3c-0.7,0-1.3,0.6-1.3,1.3c0,0.7,0.6,1.3,1.3,1.3h5.8
		c0.7,0,1.3-0.6,1.3-1.3c0-0.7-0.6-1.3-1.3-1.3H24.8z M7,55.8h4.7c0.7,0,1.3-0.6,1.3-1.3c0-0.7-0.6-1.3-1.3-1.3H7
		c-0.7,0-1.3,0.6-1.3,1.3C5.7,55.2,6.3,55.8,7,55.8z M10.4,67.2H7c-0.7,0-1.3,0.6-1.3,1.3s0.6,1.3,1.3,1.3h3.5
		c0.7,0,1.3-0.6,1.3-1.3S11.2,67.2,10.4,67.2z M25.7,56.2h-4.6c-0.7,0-1.3,0.6-1.3,1.3c0,0.7,0.6,1.3,1.3,1.3h4.6
		c0.7,0,1.3-0.6,1.3-1.3C27,56.8,26.4,56.2,25.7,56.2z"/>
	<path d="M84.6,54.5c6-4.1,9.7-10.9,9.7-18.2c0-3.5-0.8-6.8-2.3-9.9c-0.3-0.6-1.1-0.9-1.8-0.6c-0.6,0.3-0.9,1.1-0.6,1.7
		c1.4,2.7,2.1,5.6,2.1,8.7c0,6.6-3.4,12.7-8.9,16.3l-7.6-8.3c-0.9-1-2.1-1.5-3.4-1.5H54.2c-0.7-2.1-1.1-4.2-1.1-6.5
		c0-10.7,8.7-19.3,19.3-19.3c5.5,0,10.8,2.4,14.5,6.5c0.5,0.5,1.3,0.6,1.8,0.1c0,0,0,0,0,0c0.5-0.5,0.6-1.3,0.1-1.8c0,0,0,0,0,0
		c-1.9-2.1-4.2-3.9-6.7-5.1v-4.4c0-1.6-1.3-2.9-2.9-2.9H65.6c-1.6,0-2.9,1.3-2.9,2.9v4.4c-7.2,3.6-12.2,11.1-12.2,19.7
		c0,2.2,0.3,4.4,1,6.5H18.3c-1.7,0-3,1.3-3.2,2.9h-4.8c-0.7,0-1.3,0.6-1.3,1.3c0,0.7,0.6,1.3,1.3,1.3h4.7v12.6H7
		c-0.7,0-1.3,0.6-1.3,1.3c0,0.7,0.6,1.3,1.3,1.3h8.2v3.8c-0.7,0-1.3,0.6-1.3,1.3c0,0.7,0.6,1.3,1.3,1.3V79c0,1.4,1.1,2.5,2.5,2.5
		h3.5v0.9h-4.1c-0.7,0-1.3,0.6-1.3,1.3s0.6,1.3,1.3,1.3h5.4c0.7,0,1.3-0.6,1.3-1.3l0,0v-2.2h1.2c0.4,5.1,4.7,9.2,9.9,9.2
		c1.7,0,3.4-0.4,4.9-1.3c0.6-0.4,0.8-1.1,0.5-1.8c-0.4-0.6-1.1-0.8-1.8-0.5l0,0c-1.1,0.6-2.4,1-3.6,1c-4.1,0-7.4-3.3-7.4-7.4
		c0-4.1,3.3-7.4,7.4-7.4s7.4,3.3,7.4,7.4c0,1.1-0.2,2.2-0.7,3.2c-0.3,0.6,0,1.4,0.6,1.7c0.6,0.3,1.4,0,1.7-0.6c0,0,0,0,0,0
		c0.5-1.1,0.8-2.3,0.9-3.5h23.4c0.4,5.1,4.7,9.2,9.9,9.2c5.2,0,9.5-4,9.9-9.2h2.7c2,0,3.6-1.6,3.6-3.6v-11c0-1.2-0.4-2.3-1.2-3.1
		L84.6,54.5z M65.3,12.2c0-0.2,0.1-0.3,0.3-0.3h13.6c0.2,0,0.3,0.1,0.3,0.3v3.3c-2.3-0.8-4.7-1.2-7.1-1.2c-2.5,0-4.9,0.4-7.1,1.2
		L65.3,12.2L65.3,12.2z M73.4,46l13.5,14.8h-9.7c-0.7,0-1.3,0.6-1.3,1.3c0,0.7,0.6,1.3,1.3,1.3h12.1l1.9,2.1
		c0.8,0.9,0.5,1.8,0.5,2.8h-1c-0.7,0-1.3,0.6-1.3,1.3c0,0.7,0.6,1.3,1.3,1.3h1v1.9h-7.5c-1.7-1.3-3.8-2.1-6.2-2.1
		c-2.3,0-4.5,0.8-6.2,2.1H57.8V45.4h5.6v15.4c0,1.4,1.2,2.6,2.6,2.6h6c0.7,0,1.3-0.6,1.3-1.3c0-0.7-0.6-1.3-1.3-1.3h-6c0,0,0,0,0,0
		V45.4h5.9C72.4,45.4,73,45.6,73.4,46L73.4,46z M68.3,78.9H57.8v-3.4h11.8C69,76.5,68.5,77.7,68.3,78.9z M43.4,75.4h11.8v3.4H44.7
		C44.5,77.7,44,76.5,43.4,75.4L43.4,75.4z M17.8,75.4h8.6c-0.7,1.1-1.1,2.2-1.3,3.4h-7.3L17.8,75.4z M28.7,72.8H17.8v-3h5.6
		c0.7,0,1.3-0.6,1.3-1.3s-0.6-1.3-1.3-1.3h-5.6v-3.8h5.6c0.7,0,1.3-0.6,1.3-1.3c0-0.7-0.6-1.3-1.3-1.3h-5.6V45.9
		c0-0.3,0.3-0.6,0.6-0.6h36.8v27.5H41c-1.7-1.3-3.8-2.1-6.2-2.1S30.4,71.5,28.7,72.8L28.7,72.8z M78.1,88.1c-4.1,0-7.4-3.3-7.4-7.4
		c0-4.1,3.3-7.4,7.4-7.4c4.1,0,7.4,3.3,7.4,7.4C85.5,84.7,82.2,88.1,78.1,88.1z M90.7,78.9h-2.8c-0.2-1.2-0.7-2.4-1.3-3.4h5.1v2.4
		C91.7,78.4,91.3,78.9,90.7,78.9z"/>
</g>
</svg>
