<?xml version="1.0" encoding="utf-8"?>
<!-- Generator: Adobe Illustrator 24.3.0, SVG Export Plug-In . SVG Version: 6.00 Build 0)  -->
<svg version="1.1" id="Layer_1" xmlns="http://www.w3.org/2000/svg" xmlns:xlink="http://www.w3.org/1999/xlink" x="0px" y="0px"
	 viewBox="0 0 100 100" style="enable-background:new 0 0 100 100;" xml:space="preserve">
<style type="text/css">
	.st0{display:none;}
	.st1{display:inline;fill:#FFD066;}
	.st2{display:inline;fill:#FEC252;}
	.st3{display:inline;fill:#F8F6F6;}
	.st4{display:inline;fill:#DDDAEC;}
	.st5{display:inline;fill:#89B1DE;}
	.st6{display:inline;fill:#6F9CD2;}
	.st7{display:inline;fill:#E5F5FD;}
	.st8{display:inline;fill:#D3EEFA;}
	.st9{display:inline;fill:#26467E;}
	.st10{display:inline;fill:#20386B;}
	.st11{display:inline;}
	.st12{fill:#4C96D1;}
	.st13{fill:#6EACDD;}
	.st14{fill:#56C5D0;}
	.st15{fill:#3E6687;}
	.st16{fill:#CCCBCA;}
	.st17{fill:#FDC06C;}
	.st18{fill:#EDA557;}
	.st19{fill:#F04F50;}
</style>
<g class="st0">
	<path class="st1" d="M80.8,19.7H64v-7.4c0-0.9,0.7-1.6,1.6-1.6h13.6c0.9,0,1.6,0.7,1.6,1.6C80.8,12.3,80.8,19.7,80.8,19.7z"/>
	<path class="st2" d="M79.2,10.6h-3.7c0.9,0,1.6,0.7,1.6,1.6l0,0v7.4h3.7v-7.4C80.8,11.4,80.1,10.6,79.2,10.6z"/>
	<circle class="st3" cx="72.4" cy="36.3" r="20.6"/>
	<path class="st4" d="M72.4,15.7c-0.7,0-1.5,0-2.2,0.1c10.4,1.1,18.5,9.9,18.5,20.5c0,10.7-8.1,19.4-18.5,20.5
		c0.7,0.1,1.4,0.1,2.2,0.1c11.4,0,20.6-9.2,20.6-20.6S83.8,15.7,72.4,15.7z"/>
	<path class="st5" d="M90.7,80.2H17.6c-0.6,0-1.2-0.5-1.2-1.2V45.9c0-1,0.8-1.9,1.9-1.9h53.5c0.9,0,1.8,0.4,2.5,1.1l17.8,19.5
		c0.6,0.6,0.9,1.4,0.9,2.3v11C93,79.1,92,80.2,90.7,80.2L90.7,80.2z"/>
	<path class="st6" d="M92.2,64.7L74.3,45.2c-0.6-0.7-1.5-1.1-2.5-1.1H68c0.9,0,1.8,0.4,2.5,1.1l17.8,19.5c0.6,0.6,0.9,1.4,0.9,2.3
		v11c0,1.3-1,2.3-2.3,2.3h3.8c1.3,0,2.3-1,2.3-2.3V67C93,66.1,92.7,65.3,92.2,64.7z"/>
	<path class="st7" d="M74.3,45.2c-0.6-0.7-1.5-1.1-2.5-1.1h-7.2v16.7c0,0.7,0.6,1.3,1.3,1.3h23.8L74.3,45.2z"/>
	<path class="st8" d="M70.5,45.2l15.5,17h3.8l-15.5-17c-0.6-0.7-1.5-1.1-2.5-1.1H68C69,44.1,69.9,44.5,70.5,45.2L70.5,45.2z"/>
	<circle class="st9" cx="78.1" cy="80.7" r="8.7"/>
	<path class="st10" d="M78.1,72c-0.5,0-1,0-1.4,0.1c4.1,0.7,7.2,4.3,7.2,8.6c0,4.3-3.1,7.9-7.2,8.6c0.5,0.1,1,0.1,1.4,0.1
		c4.8,0,8.7-3.9,8.7-8.7C86.8,75.9,82.9,72,78.1,72z"/>
	<circle class="st3" cx="78.1" cy="80.7" r="2.9"/>
	<path class="st4" d="M78.1,77.8c-0.4,0-0.8,0.1-1.2,0.3c1,0.5,1.7,1.5,1.7,2.6c0,1.2-0.7,2.2-1.7,2.6c0.4,0.2,0.8,0.3,1.2,0.3
		c1.6,0,2.9-1.3,2.9-2.9S79.7,77.8,78.1,77.8z"/>
	<circle class="st9" cx="34.9" cy="80.7" r="8.7"/>
	<path class="st10" d="M34.9,72c-0.5,0-1,0-1.4,0.1c4.1,0.7,7.2,4.3,7.2,8.6c0,4.3-3.1,7.9-7.2,8.6c0.5,0.1,1,0.1,1.4,0.1
		c4.8,0,8.7-3.9,8.7-8.7C43.5,75.9,39.7,72,34.9,72z"/>
	<circle class="st3" cx="34.9" cy="80.7" r="2.9"/>
	<path class="st4" d="M34.9,77.8c-0.4,0-0.8,0.1-1.2,0.3c1,0.5,1.7,1.5,1.7,2.6c0,1.2-0.7,2.2-1.7,2.6c0.4,0.2,0.8,0.3,1.2,0.3
		c1.6,0,2.9-1.3,2.9-2.9S36.5,77.8,34.9,77.8z"/>
	<path class="st3" d="M32.2,65l-1-1l6.2-6l-6.2-6l1-1c1.4-1.4,3.7-1.5,5.1-0.1l5.4,5.3c0.3,0.3,0.5,0.6,0.6,1c0.4,1,0.1,2-0.6,2.7
		l-5.4,5.3C35.9,66.5,33.6,66.5,32.2,65L32.2,65z"/>
	<path class="st11" d="M72.4,23.5c0.7,0,1.3-0.6,1.3-1.3v-1.7c0-0.7-0.6-1.3-1.3-1.3s-1.3,0.6-1.3,1.3v1.7
		C71.1,22.9,71.7,23.5,72.4,23.5L72.4,23.5z M86.5,35c-0.7,0-1.3,0.6-1.3,1.3s0.6,1.3,1.3,1.3h1.7c0.7,0,1.3-0.6,1.3-1.3
		S88.9,35,88.2,35H86.5z M56.5,35c-0.7,0-1.3,0.6-1.3,1.3s0.6,1.3,1.3,1.3h1.7c0.7,0,1.3-0.6,1.3-1.3S58.9,35,58.2,35H56.5z
		 M78.1,76.5c-2.3,0-4.2,1.9-4.2,4.2s1.9,4.2,4.2,4.2c2.3,0,4.2-1.9,4.2-4.2S80.4,76.5,78.1,76.5z M78.1,82.3
		c-0.9,0-1.6-0.7-1.6-1.6s0.7-1.6,1.6-1.6s1.6,0.7,1.6,1.6C79.7,81.5,79,82.3,78.1,82.3z M30.7,80.7c0,2.3,1.9,4.2,4.2,4.2
		s4.2-1.9,4.2-4.2s-1.9-4.2-4.2-4.2S30.7,78.4,30.7,80.7z M36.4,80.7c0,0.9-0.7,1.6-1.6,1.6c-0.9,0-1.6-0.7-1.6-1.6s0.7-1.6,1.6-1.6
		S36.4,79.8,36.4,80.7z M43.7,60.7c1.5-1.4,1.6-3.9,0-5.5L38.3,50c-1.9-1.9-5.1-1.9-7,0.1l-1,1c-0.5,0.5-0.5,1.3,0,1.8l5.2,5.1
		l-5.2,5.1c-0.5,0.5-0.5,1.3,0,1.8l1,1c1.9,2,5,2,7,0.1L43.7,60.7z M33.1,64.1L33.1,64.1l5.1-5.2c0.5-0.5,0.5-1.3,0-1.8l0,0L33,52
		l0.1-0.1c0.9-0.9,2.4-0.9,3.3,0l5.4,5.3c0.6,0.6,0.5,1.4,0,1.8l-5.4,5.3C35.5,65.1,34,65,33.1,64.1L33.1,64.1z M71.1,36.3
		c0,0.7,0.6,1.3,1.3,1.3h4.4c0.7,0,1.3-0.6,1.3-1.3S77.5,35,76.8,35h-3.1v-8.1c0-0.7-0.6-1.3-1.3-1.3s-1.3,0.6-1.3,1.3V36.3z
		 M27.9,25.2h22.4c0.7,0,1.3-0.6,1.3-1.3s-0.6-1.3-1.3-1.3H27.9c-0.7,0-1.3,0.6-1.3,1.3S27.1,25.2,27.9,25.2z M22.4,31.9h23.2
		c0.7,0,1.3-0.6,1.3-1.3s-0.6-1.3-1.3-1.3H22.4c-0.7,0-1.3,0.6-1.3,1.3S21.7,31.9,22.4,31.9z M35.7,35.3c-0.7,0-1.3,0.6-1.3,1.3
		s0.6,1.3,1.3,1.3h11.6c0.7,0,1.3-0.6,1.3-1.3s-0.6-1.3-1.3-1.3H35.7z M24.8,35.3c-0.7,0-1.3,0.6-1.3,1.3s0.6,1.3,1.3,1.3h5.8
		c0.7,0,1.3-0.6,1.3-1.3s-0.6-1.3-1.3-1.3H24.8z M7,55.8h4.7c0.7,0,1.3-0.6,1.3-1.3s-0.6-1.3-1.3-1.3H7c-0.7,0-1.3,0.6-1.3,1.3
		S6.3,55.8,7,55.8z M10.4,67.2H7c-0.7,0-1.3,0.6-1.3,1.3s0.6,1.3,1.3,1.3h3.5c0.7,0,1.3-0.6,1.3-1.3S11.2,67.2,10.4,67.2z
		 M25.7,56.2h-4.6c-0.7,0-1.3,0.6-1.3,1.3s0.6,1.3,1.3,1.3h4.6c0.7,0,1.3-0.6,1.3-1.3S26.4,56.2,25.7,56.2z"/>
	<path class="st11" d="M84.6,54.5c6-4.1,9.7-10.9,9.7-18.2c0-3.5-0.8-6.8-2.3-9.9c-0.3-0.6-1.1-0.9-1.8-0.6
		c-0.6,0.3-0.9,1.1-0.6,1.7c1.4,2.7,2.1,5.6,2.1,8.7c0,6.6-3.4,12.7-8.9,16.3l-7.6-8.3c-0.9-1-2.1-1.5-3.4-1.5H54.2
		c-0.7-2.1-1.1-4.2-1.1-6.5c0-10.7,8.7-19.3,19.3-19.3c5.5,0,10.8,2.4,14.5,6.5c0.5,0.5,1.3,0.6,1.8,0.1l0,0
		c0.5-0.5,0.6-1.3,0.1-1.8l0,0c-1.9-2.1-4.2-3.9-6.7-5.1v-4.4c0-1.6-1.3-2.9-2.9-2.9H65.6c-1.6,0-2.9,1.3-2.9,2.9v4.4
		c-7.2,3.6-12.2,11.1-12.2,19.7c0,2.2,0.3,4.4,1,6.5H18.3c-1.7,0-3,1.3-3.2,2.9h-4.8C9.6,45.7,9,46.3,9,47s0.6,1.3,1.3,1.3H15v12.6
		H7c-0.7,0-1.3,0.6-1.3,1.3s0.6,1.3,1.3,1.3h8.2v3.8c-0.7,0-1.3,0.6-1.3,1.3c0,0.7,0.6,1.3,1.3,1.3V79c0,1.4,1.1,2.5,2.5,2.5h3.5
		v0.9h-4.1c-0.7,0-1.3,0.6-1.3,1.3s0.6,1.3,1.3,1.3h5.4c0.7,0,1.3-0.6,1.3-1.3l0,0v-2.2H25c0.4,5.1,4.7,9.2,9.9,9.2
		c1.7,0,3.4-0.4,4.9-1.3c0.6-0.4,0.8-1.1,0.5-1.8c-0.4-0.6-1.1-0.8-1.8-0.5l0,0c-1.1,0.6-2.4,1-3.6,1c-4.1,0-7.4-3.3-7.4-7.4
		s3.3-7.4,7.4-7.4s7.4,3.3,7.4,7.4c0,1.1-0.2,2.2-0.7,3.2c-0.3,0.6,0,1.4,0.6,1.7c0.6,0.3,1.4,0,1.7-0.6l0,0
		c0.5-1.1,0.8-2.3,0.9-3.5h23.4c0.4,5.1,4.7,9.2,9.9,9.2c5.2,0,9.5-4,9.9-9.2h2.7c2,0,3.6-1.6,3.6-3.6v-11c0-1.2-0.4-2.3-1.2-3.1
		L84.6,54.5z M65.3,12.2c0-0.2,0.1-0.3,0.3-0.3h13.6c0.2,0,0.3,0.1,0.3,0.3v3.3c-2.3-0.8-4.7-1.2-7.1-1.2c-2.5,0-4.9,0.4-7.1,1.2
		L65.3,12.2L65.3,12.2z M73.4,46l13.5,14.8h-9.7c-0.7,0-1.3,0.6-1.3,1.3s0.6,1.3,1.3,1.3h12.1l1.9,2.1c0.8,0.9,0.5,1.8,0.5,2.8h-1
		c-0.7,0-1.3,0.6-1.3,1.3c0,0.7,0.6,1.3,1.3,1.3h1v1.9h-7.5c-1.7-1.3-3.8-2.1-6.2-2.1c-2.3,0-4.5,0.8-6.2,2.1h-14V45.4h5.6v15.4
		c0,1.4,1.2,2.6,2.6,2.6h6c0.7,0,1.3-0.6,1.3-1.3s-0.6-1.3-1.3-1.3h-6l0,0V45.4h5.9C72.4,45.4,73,45.6,73.4,46L73.4,46z M68.3,78.9
		H57.8v-3.4h11.8C69,76.5,68.5,77.7,68.3,78.9z M43.4,75.4h11.8v3.4H44.7C44.5,77.7,44,76.5,43.4,75.4L43.4,75.4z M17.8,75.4h8.6
		c-0.7,1.1-1.1,2.2-1.3,3.4h-7.3V75.4z M28.7,72.8H17.8v-3h5.6c0.7,0,1.3-0.6,1.3-1.3s-0.6-1.3-1.3-1.3h-5.6v-3.8h5.6
		c0.7,0,1.3-0.6,1.3-1.3s-0.6-1.3-1.3-1.3h-5.6V45.9c0-0.3,0.3-0.6,0.6-0.6h36.8v27.5H41c-1.7-1.3-3.8-2.1-6.2-2.1
		S30.4,71.5,28.7,72.8L28.7,72.8z M78.1,88.1c-4.1,0-7.4-3.3-7.4-7.4s3.3-7.4,7.4-7.4s7.4,3.3,7.4,7.4
		C85.5,84.7,82.2,88.1,78.1,88.1z M90.7,78.9h-2.8c-0.2-1.2-0.7-2.4-1.3-3.4h5.1v2.4C91.7,78.4,91.3,78.9,90.7,78.9z"/>
</g>
<g>
	<path class="st12" d="M86.1,68.8H13.4c-1,0-1.7-0.8-1.7-1.7v-5.7h76.6v5.3C88.2,67.8,87.3,68.8,86.1,68.8z"/>
	<path class="st13" d="M86.1,68.8H66V38.7h12.7c0.6,0,1.3,0.3,1.8,0.7l7,7.1c0.4,0.4,0.7,1.1,0.7,1.8v18.4
		C88.2,67.8,87.3,68.8,86.1,68.8L86.1,68.8z"/>
	<path class="st12" d="M87.5,46.5l-7-7.1c-0.4-0.4-1.1-0.7-1.8-0.7h-8.6c0.6,0,1.3,0.3,1.8,0.7l7,7.1c0.4,0.4,0.7,1.1,0.7,1.8v20.6
		H86c1.2,0,2.1-1,2.1-2.1V48.2C88.2,47.6,88.1,47,87.5,46.5L87.5,46.5z"/>
	<path class="st14" d="M70.3,53.6v-9.5c0-0.5,0.4-1,1-1l0,0h6.2c0.3,0,0.5,0.1,0.7,0.3l5.4,5.5c0.2,0.2,0.3,0.4,0.3,0.7v3.9
		c0,0.5-0.4,1-1,1l0,0H71.3C70.8,54.6,70.3,54.2,70.3,53.6L70.3,53.6L70.3,53.6z"/>
	<circle class="st15" cx="76.7" cy="68.1" r="6.7"/>
	<circle class="st16" cx="76.7" cy="68.1" r="2.6"/>
	<path class="st17" d="M11.7,64.5h54.4V26.4c0-0.7-0.5-1.2-1.2-1.2l0,0h-52c-0.7,0-1.2,0.5-1.2,1.2l0,0
		C11.7,26.4,11.7,64.5,11.7,64.5z"/>
	<path class="st18" d="M64.8,25.2h-7.3v39.4H66V26.4C66,25.7,65.5,25.2,64.8,25.2L64.8,25.2z"/>
	<circle class="st15" cx="25.1" cy="68.1" r="6.7"/>
	<circle class="st16" cx="25.1" cy="68.1" r="2.6"/>
	<path class="st19" d="M44,39.3H33.1c-0.5,0-0.9-0.4-0.9-0.9l0,0V25.2H45v13.2C45,38.9,44.6,39.3,44,39.3L44,39.3L44,39.3z"/>
	<path d="M60,52.8c0.6,0,1.2-0.5,1.2-1.2s-0.5-1.2-1.2-1.2l0,0h-4.9c-0.6,0-1.2,0.5-1.2,1.2s0.5,1.2,1.2,1.2l0,0H60z M47.9,52.8h1.8
		c0.6,0,1.2-0.5,1.2-1.2s-0.5-1.2-1.2-1.2l0,0h-1.8c-0.6,0-1.2,0.5-1.2,1.2C46.8,52.3,47.2,52.8,47.9,52.8L47.9,52.8z M47.9,59.5H60
		c0.6,0,1.2-0.5,1.2-1.2s-0.5-1.2-1.2-1.2l0,0H47.9c-0.6,0-1.2,0.5-1.2,1.2C46.8,59,47.2,59.5,47.9,59.5L47.9,59.5L47.9,59.5z
		 M76.7,64.3c-2.1,0-3.7,1.7-3.7,3.7c0,2.1,1.7,3.7,3.7,3.7s3.7-1.7,3.7-3.7C80.4,66,78.7,64.3,76.7,64.3z M76.7,69.5
		c-0.8,0-1.4-0.6-1.4-1.4s0.6-1.4,1.4-1.4s1.4,0.6,1.4,1.4C78.1,68.9,77.5,69.5,76.7,69.5z M25.1,64.3c-2.1,0-3.7,1.7-3.7,3.7
		c0,2.1,1.7,3.7,3.7,3.7s3.7-1.7,3.7-3.7C28.9,66,27.2,64.3,25.1,64.3z M25.1,69.5c-0.8,0-1.4-0.6-1.4-1.4s0.6-1.4,1.4-1.4
		c0.8,0,1.4,0.6,1.4,1.4C26.5,68.9,25.9,69.5,25.1,69.5z M79.1,42.7c-0.4-0.4-1-0.6-1.5-0.6h-6.2c-1.2,0-2.1,1-2.1,2.1v9.4
		c0,1.2,1,2.1,2.1,2.1H83c1.2,0,2.1-1,2.1-2.1v-3.9c0-0.5-0.2-1.2-0.6-1.5L79.1,42.7z M82.9,53.5H71.5v-9.1h6.1l5.3,5.4V53.5z"/>
	<path d="M89.4,66.7V48.2c0-1-0.4-1.9-1.1-2.6l-7-7.1c-0.7-0.7-1.6-1.1-2.6-1.1H67.1V26.4c0-1.3-1.1-2.4-2.4-2.4H12.9
		c-1.3,0-2.4,1.1-2.4,2.4v3.1c0,0.6,0.5,1.2,1.2,1.2s1.2-0.5,1.2-1.2v-3c0,0,0-0.1,0.1-0.1H31v12c0,1.2,0.9,2.1,2.1,2.1h10.9
		c1.2,0,2.1-0.9,2.1-2.1v-12h18.7c0,0,0.1,0,0.1,0.1v37H31.5c-1.2-1.5-2.8-2.6-4.6-3c-0.2,0-0.4-0.1-0.5-0.1c-0.1,0-0.2,0-0.2,0
		c-0.1,0-0.2,0-0.3,0c-0.1,0-0.1,0-0.2,0c-0.2,0-0.3,0-0.4,0c-0.2,0-0.3,0-0.4,0c-0.1,0-0.1,0-0.2,0c-0.1,0-0.2,0-0.3,0
		c-0.1,0-0.2,0-0.2,0c-0.2,0-0.4,0.1-0.5,0.1c-1.9,0.4-3.5,1.4-4.6,3h-6.1V34.9c0-0.6-0.5-1.2-1.2-1.2s-1.2,0.5-1.2,1.2v32.2
		c0,1.6,1.2,2.9,2.9,2.9h4.1c0.9,3.4,3.9,6,7.7,6s6.8-2.6,7.7-6h36.3c0.9,3.4,3.9,6,7.7,6c3.7,0,6.8-2.6,7.7-6h1.8
		C88,70,89.4,68.4,89.4,66.7L89.4,66.7L89.4,66.7L89.4,66.7z M43.8,38.1H33.4V26.4h10.4V38.1z M17.6,65.8c-0.1,0.2-0.1,0.3-0.1,0.4
		v0.1c0,0.2-0.1,0.4-0.1,0.5c0,0.1,0,0.3-0.1,0.4v0.1c0,0.2,0,0.3,0,0.4l0,0h-3.9c-0.3,0-0.5-0.3-0.5-0.5v-1.4H17.6
		C17.6,65.7,17.6,65.7,17.6,65.8L17.6,65.8z M30.6,68.7c-0.3,2.8-2.7,5-5.5,5s-5.3-2.1-5.5-5c0-0.2,0-0.4,0-0.6c0-0.1,0-0.3,0-0.4
		v-0.1c0-0.1,0-0.2,0-0.3v-0.1c0-0.1,0-0.3,0.1-0.4l0,0c0-0.1,0.1-0.3,0.1-0.4s0.1-0.2,0.1-0.3c0,0,0,0,0-0.1S20,66,20,66
		c0,0,0-0.1,0.1-0.1c0-0.1,0.1-0.1,0.1-0.2c0,0,0-0.1,0.1-0.1c0.1-0.1,0.1-0.2,0.2-0.3c0-0.1,0.1-0.1,0.1-0.2l0.1-0.1
		c0-0.1,0.1-0.1,0.1-0.2c0,0,0,0,0-0.1c0.8-1.1,2-1.8,3.3-2.1l0,0c0.1,0,0.1,0,0.2,0s0.1,0,0.2,0s0.3,0,0.4,0h0.1c0.1,0,0.2,0,0.4,0
		c0.1,0,0.2,0,0.4,0h0.1c0.1,0,0.3,0,0.4,0c0.1,0,0.1,0,0.2,0s0.1,0,0.2,0l0,0c1.3,0.3,2.5,1.1,3.3,2.1c0,0,0,0,0,0.1
		s0.1,0.1,0.1,0.2l0.1,0.1c0,0.1,0.1,0.1,0.1,0.2c0.1,0.1,0.1,0.2,0.2,0.3c0,0,0,0.1,0.1,0.1c0,0.1,0.1,0.1,0.1,0.2
		c0,0,0,0.1,0.1,0.1c0,0.1,0.1,0.2,0.1,0.3c0,0,0,0,0,0.1c0.1,0.2,0.2,0.4,0.2,0.6l0,0c0,0.1,0,0.3,0.1,0.4v0.1c0,0.1,0,0.2,0,0.3
		v0.1c0,0.1,0,0.3,0,0.4C30.6,68.3,30.6,68.5,30.6,68.7L30.6,68.7z M64.9,67.6H33l0,0c0-0.2,0-0.3,0-0.4v-0.1c0-0.1,0-0.3-0.1-0.4
		v-0.1c0-0.1-0.1-0.3-0.1-0.4v-0.1c0-0.2-0.1-0.3-0.1-0.4l0,0H65L64.9,67.6L64.9,67.6z M82.2,68.7c-0.3,2.8-2.7,5-5.5,5
		c-2.9,0-5.3-2.1-5.5-5c0-0.2,0-0.4,0-0.6c0-3,2.5-5.5,5.5-5.5s5.5,2.5,5.5,5.5C82.2,68.3,82.2,68.5,82.2,68.7L82.2,68.7z
		 M87.1,66.7c0,0.5-0.4,1.1-1.1,1.1h-1.6c0-0.1,0-0.3,0-0.4l0,0c0-0.1,0-0.3-0.1-0.4v-0.1c0-0.1,0-0.2-0.1-0.3c0-0.1,0-0.1,0-0.2
		s0-0.2-0.1-0.3c0-0.1,0-0.1,0-0.2s0-0.2-0.1-0.3c0-0.1,0-0.1-0.1-0.2c0-0.1-0.1-0.2-0.1-0.2c0-0.1,0-0.1-0.1-0.2
		c0-0.1-0.1-0.2-0.1-0.2c0-0.1,0-0.1-0.1-0.2c0-0.1-0.1-0.1-0.1-0.2c0-0.1-0.1-0.1-0.1-0.2s-0.1-0.1-0.1-0.2c0-0.1-0.1-0.1-0.1-0.2
		s-0.1-0.1-0.1-0.2c0-0.1-0.1-0.1-0.1-0.2c0-0.1-0.1-0.1-0.1-0.2c0-0.1-0.1-0.1-0.1-0.1c0-0.1-0.1-0.1-0.1-0.2l-0.1-0.1
		c0-0.1-0.1-0.1-0.1-0.2L82.5,63c-0.1-0.1-0.1-0.1-0.2-0.2l-0.1-0.1c-0.1-0.2-0.3-0.3-0.4-0.4c-0.1-0.1-0.2-0.2-0.3-0.3l-0.1-0.1
		c-0.2-0.2-0.4-0.3-0.6-0.4c-0.1,0-0.1-0.1-0.2-0.1c-0.1,0-0.1-0.1-0.2-0.1s-0.1-0.1-0.2-0.1c-0.1,0-0.1-0.1-0.2-0.1S80,61,79.9,61
		c-0.1,0-0.1-0.1-0.2-0.1s-0.1-0.1-0.2-0.1s-0.1-0.1-0.2-0.1c-0.1,0-0.1-0.1-0.2-0.1s-0.1,0-0.2-0.1c-0.1,0-0.1-0.1-0.2-0.1
		s-0.1,0-0.2-0.1c-0.1,0-0.2,0-0.2-0.1c-0.1,0-0.1,0-0.2-0.1c-0.1,0-0.2,0-0.2-0.1c-0.1,0-0.1,0-0.2,0c-0.1,0-0.2,0-0.2,0
		c-0.1,0-0.1,0-0.2,0s-0.2,0-0.3,0c-0.1,0-0.1,0-0.2,0s-0.2,0-0.3,0h-0.1c-0.3,0-0.5,0-0.8,0h-0.1c-0.1,0-0.2,0-0.3,0
		c-0.1,0-0.1,0-0.2,0s-0.2,0-0.3,0c-0.1,0-0.1,0-0.2,0s-0.2,0-0.2,0c-0.1,0-0.1,0-0.2,0s-0.2,0-0.2,0.1c-0.1,0-0.1,0-0.2,0.1
		c-0.1,0-0.2,0-0.2,0.1c-0.1,0-0.1,0-0.2,0.1c-0.1,0-0.1,0-0.2,0.1c-0.1,0-0.1,0-0.2,0.1c-0.1,0-0.1,0.1-0.2,0.1s-0.1,0.1-0.2,0.1
		c-0.1,0-0.1,0.1-0.2,0.1S73,61,72.9,61c-0.1,0-0.1,0.1-0.2,0.1s-0.1,0.1-0.2,0.1c-0.1,0-0.1,0.1-0.2,0.1s-0.1,0.1-0.2,0.1
		s-0.1,0.1-0.2,0.1c-0.1,0-0.1,0.1-0.2,0.1s-0.1,0.1-0.2,0.1c-0.2,0.1-0.3,0.2-0.4,0.4c-0.1,0.1-0.2,0.2-0.3,0.3
		c-0.1,0.1-0.2,0.2-0.3,0.3c-0.1,0.1-0.1,0.1-0.2,0.2s-0.2,0.2-0.3,0.3l-0.1,0.1c0,0.1-0.1,0.1-0.1,0.2L70,63.4
		c0,0.1-0.1,0.1-0.1,0.2l-0.1,0.1c0,0.1-0.1,0.1-0.1,0.2c0,0.1-0.1,0.1-0.1,0.2c0,0.1-0.1,0.1-0.1,0.2s-0.1,0.1-0.1,0.2
		c0,0.1-0.1,0.1-0.1,0.2s-0.1,0.1-0.1,0.2c0,0.1-0.1,0.1-0.1,0.2s0,0.1-0.1,0.2c0,0.1-0.1,0.2-0.1,0.2c0,0.1,0,0.1-0.1,0.2
		c0,0.1-0.1,0.2-0.1,0.2c0,0.1,0,0.1-0.1,0.2c0,0.1,0,0.2-0.1,0.3c0,0.1,0,0.1,0,0.2s0,0.2-0.1,0.3c0,0.1,0,0.1,0,0.2s0,0.2-0.1,0.3
		V67c0,0.1,0,0.3-0.1,0.4c0,0,0,0,0,0.1s0,0.3,0,0.4h-1.6v-28h11.6c0.4,0,0.7,0.2,1,0.4l7,7.1c0.3,0.3,0.4,0.6,0.4,0.9L87.1,66.7
		L87.1,66.7z"/>
</g>
</svg>
