<?xml version="1.0" encoding="UTF-8"?>
<svg version="1.1" xmlns="http://www.w3.org/2000/svg" width="100" height="100">
<path d="M0 0 C0.74362793 0.01047363 1.48725586 0.02094727 2.25341797 0.03173828 C3.46191406 0.04140625 3.46191406 0.04140625 4.69482422 0.05126953 C5.95746094 0.07640625 5.95746094 0.07640625 7.24560547 0.10205078 C8.51984375 0.11558594 8.51984375 0.11558594 9.81982422 0.12939453 C11.9202043 0.15299431 14.02043991 0.18886595 16.12060547 0.22705078 C17.47500215 2.93584413 17.18561998 5.23638346 17.12060547 8.22705078 C17.87857422 8.46681641 18.63654297 8.70658203 19.41748047 8.95361328 C22.54850819 10.42863501 23.54212547 11.70535352 25.37060547 14.60205078 C25.87076172 15.37291016 26.37091797 16.14376953 26.88623047 16.93798828 C28.87718254 20.63007028 29.24434108 23.81302901 29.18310547 27.97705078 C29.17408203 28.77626953 29.16505859 29.57548828 29.15576172 30.39892578 C29.14416016 31.00220703 29.13255859 31.60548828 29.12060547 32.22705078 C30.60439697 32.26463501 30.60439697 32.26463501 32.11816406 32.30297852 C35.78219951 32.39702865 39.44604432 32.49725507 43.10986328 32.59936523 C44.69673203 32.64272319 46.2836477 32.68439765 47.87060547 32.72436523 C50.14939526 32.7820471 52.42794869 32.84574716 54.70654297 32.91064453 C55.77381119 32.93571327 55.77381119 32.93571327 56.86264038 32.96128845 C61.89286206 33.11317907 61.89286206 33.11317907 64.12060547 34.22705078 C64.12060547 34.88705078 64.12060547 35.54705078 64.12060547 36.22705078 C66.10060547 36.22705078 68.08060547 36.22705078 70.12060547 36.22705078 C70.12060547 37.54705078 70.12060547 38.86705078 70.12060547 40.22705078 C68.14060547 40.22705078 66.16060547 40.22705078 64.12060547 40.22705078 C64.12060547 43.85705078 64.12060547 47.48705078 64.12060547 51.22705078 C67.09060547 51.22705078 70.06060547 51.22705078 73.12060547 51.22705078 C73.12060547 52.54705078 73.12060547 53.86705078 73.12060547 55.22705078 C70.15060547 55.22705078 67.18060547 55.22705078 64.12060547 55.22705078 C65.11060547 57.70205078 65.11060547 57.70205078 66.12060547 60.22705078 C65.79060547 60.55705078 65.46060547 60.88705078 65.12060547 61.22705078 C64.88407024 63.75301337 64.69886855 66.25812285 64.55810547 68.78955078 C64.51492187 69.50046875 64.47173828 70.21138672 64.42724609 70.94384766 C64.3208877 72.7046699 64.22021701 74.46583398 64.12060547 76.22705078 C63.26789063 76.12263672 63.26789063 76.12263672 62.39794922 76.01611328 C57.54404711 75.61490057 57.54404711 75.61490057 53.24560547 77.56298828 C52.12389535 78.66911909 51.00408901 79.77718395 49.88623047 80.88720703 C46.72022418 83.2897295 43.95089954 82.68149245 40.12060547 82.22705078 C38.12060547 81.22705078 38.12060547 81.22705078 37.12060547 78.22705078 C36.13060547 77.56705078 35.14060547 76.90705078 34.12060547 76.22705078 C34.12060547 75.23705078 34.12060547 74.24705078 34.12060547 73.22705078 C26.53060547 73.22705078 18.94060547 73.22705078 11.12060547 73.22705078 C10.79060547 74.87705078 10.46060547 76.52705078 10.12060547 78.22705078 C7.21816055 81.4813072 5.5288182 82.16873468 1.18310547 82.78955078 C-3.54770016 82.54717554 -5.74097286 80.67931462 -8.87939453 77.22705078 C-8.87939453 75.90705078 -8.87939453 74.58705078 -8.87939453 73.22705078 C-9.66314453 73.26830078 -10.44689453 73.30955078 -11.25439453 73.35205078 C-13.87939453 73.22705078 -13.87939453 73.22705078 -15.87939453 71.22705078 C-16.68483991 65.39648161 -17.41194275 58.79913295 -14.31298828 53.59814453 C-12.37939453 51.53955078 -12.37939453 51.53955078 -10.41064453 49.84033203 C-8.42044366 48.11422589 -8.42044366 48.11422589 -8.87939453 44.22705078 C-9.77658203 43.11330078 -9.77658203 43.11330078 -10.69189453 41.97705078 C-14.95938997 36.61219937 -16.50257128 31.08199498 -15.87939453 24.22705078 C-14.93874068 19.88557145 -14.2245878 17.15409489 -10.87939453 14.22705078 C-10.59064453 13.54642578 -10.30189453 12.86580078 -10.00439453 12.16455078 C-8.46610437 9.51527328 -6.7282753 9.12669734 -3.87939453 8.22705078 C-3.92064453 7.27830078 -3.96189453 6.32955078 -4.00439453 5.35205078 C-3.86973517 1.98556678 -3.58420249 0.43300965 0 0 Z " fill="#080A0D" transform="translate(20.87939453125,8.77294921875)"/>
<path d="M0 0 C0.74362793 0.01047363 1.48725586 0.02094727 2.25341797 0.03173828 C3.46191406 0.04140625 3.46191406 0.04140625 4.69482422 0.05126953 C5.95746094 0.07640625 5.95746094 0.07640625 7.24560547 0.10205078 C8.51984375 0.11558594 8.51984375 0.11558594 9.81982422 0.12939453 C11.9202043 0.15299431 14.02043991 0.18886595 16.12060547 0.22705078 C17.47500215 2.93584413 17.18561998 5.23638346 17.12060547 8.22705078 C18.25755859 8.58669922 18.25755859 8.58669922 19.41748047 8.95361328 C22.54850819 10.42863501 23.54212547 11.70535352 25.37060547 14.60205078 C25.87076172 15.37291016 26.37091797 16.14376953 26.88623047 16.93798828 C28.87718254 20.63007028 29.24434108 23.81302901 29.18310547 27.97705078 C29.17408203 28.77626953 29.16505859 29.57548828 29.15576172 30.39892578 C29.14416016 31.00220703 29.13255859 31.60548828 29.12060547 32.22705078 C30.60439697 32.26463501 30.60439697 32.26463501 32.11816406 32.30297852 C35.78219951 32.39702865 39.44604432 32.49725507 43.10986328 32.59936523 C44.69673203 32.64272319 46.2836477 32.68439765 47.87060547 32.72436523 C50.14939526 32.7820471 52.42794869 32.84574716 54.70654297 32.91064453 C55.77381119 32.93571327 55.77381119 32.93571327 56.86264038 32.96128845 C61.89286206 33.11317907 61.89286206 33.11317907 64.12060547 34.22705078 C64.12060547 34.88705078 64.12060547 35.54705078 64.12060547 36.22705078 C66.10060547 36.22705078 68.08060547 36.22705078 70.12060547 36.22705078 C70.12060547 37.54705078 70.12060547 38.86705078 70.12060547 40.22705078 C68.14060547 40.22705078 66.16060547 40.22705078 64.12060547 40.22705078 C64.12060547 43.85705078 64.12060547 47.48705078 64.12060547 51.22705078 C67.09060547 51.22705078 70.06060547 51.22705078 73.12060547 51.22705078 C73.12060547 52.54705078 73.12060547 53.86705078 73.12060547 55.22705078 C70.15060547 55.22705078 67.18060547 55.22705078 64.12060547 55.22705078 C65.11060547 57.70205078 65.11060547 57.70205078 66.12060547 60.22705078 C65.79060547 60.55705078 65.46060547 60.88705078 65.12060547 61.22705078 C64.88407024 63.75301337 64.69886855 66.25812285 64.55810547 68.78955078 C64.51492187 69.50046875 64.47173828 70.21138672 64.42724609 70.94384766 C64.3208877 72.7046699 64.22021701 74.46583398 64.12060547 76.22705078 C63.26789063 76.12263672 63.26789063 76.12263672 62.39794922 76.01611328 C57.54404711 75.61490057 57.54404711 75.61490057 53.24560547 77.56298828 C52.12389535 78.66911909 51.00408901 79.77718395 49.88623047 80.88720703 C46.72022418 83.2897295 43.95089954 82.68149245 40.12060547 82.22705078 C39.13060547 81.73205078 39.13060547 81.73205078 38.12060547 81.22705078 C38.61560547 79.74205078 38.61560547 79.74205078 39.12060547 78.22705078 C41.00779297 78.31986328 41.00779297 78.31986328 42.93310547 78.41455078 C45.49766391 78.39639462 46.8352432 78.37864949 49.12060547 77.16455078 C50.6831825 74.13705779 50.42389187 71.56320116 50.12060547 68.22705078 C48.13962006 65.81474707 48.13962006 65.81474707 44.30810547 65.91455078 C40.51759116 65.99049916 38.19558123 66.92081896 35.12060547 69.22705078 C35.12060547 68.23705078 35.12060547 67.24705078 35.12060547 66.22705078 C31.16060547 66.22705078 27.20060547 66.22705078 23.12060547 66.22705078 C22.62560547 67.71205078 22.62560547 67.71205078 22.12060547 69.22705078 C21.79060547 68.56705078 21.46060547 67.90705078 21.12060547 67.22705078 C18.30462057 66.75806115 18.30462057 66.75806115 15.05810547 66.60205078 C13.95337891 66.52728516 12.84865234 66.45251953 11.71044922 66.37548828 C10.42847656 66.30201172 10.42847656 66.30201172 9.12060547 66.22705078 C9.12060547 66.88705078 9.12060547 67.54705078 9.12060547 68.22705078 C7.18310547 67.41455078 7.18310547 67.41455078 5.12060547 66.22705078 C4.79060547 65.23705078 4.46060547 64.24705078 4.12060547 63.22705078 C9.73060547 63.55705078 15.34060547 63.88705078 21.12060547 64.22705078 C21.12060547 55.31705078 21.12060547 46.40705078 21.12060547 37.22705078 C19.47060547 37.22705078 17.82060547 37.22705078 16.12060547 37.22705078 C16.13220703 38.37044922 16.14380859 39.51384766 16.15576172 40.69189453 C16.16513835 42.18277832 16.17423868 43.67366387 16.18310547 45.16455078 C16.19148438 45.91929688 16.19986328 46.67404297 16.20849609 47.45166016 C16.21712988 49.37699392 16.1728488 51.30240659 16.12060547 53.22705078 C15.12060547 54.22705078 15.12060547 54.22705078 13.05419922 54.32470703 C12.23048828 54.31310547 11.40677734 54.30150391 10.55810547 54.28955078 C9.73181641 54.28052734 8.90552734 54.27150391 8.05419922 54.26220703 C7.41611328 54.25060547 6.77802734 54.23900391 6.12060547 54.22705078 C6.12060547 53.56705078 6.12060547 52.90705078 6.12060547 52.22705078 C8.43060547 52.22705078 10.74060547 52.22705078 13.12060547 52.22705078 C13.12060547 46.94705078 13.12060547 41.66705078 13.12060547 36.22705078 C10.81060547 36.22705078 8.50060547 36.22705078 6.12060547 36.22705078 C6.45060547 35.56705078 6.78060547 34.90705078 7.12060547 34.22705078 C13.06060547 34.22705078 19.00060547 34.22705078 25.12060547 34.22705078 C25.78630359 24.4580834 25.78630359 24.4580834 21.72216797 15.91845703 C17.26688733 11.21324601 13.1654663 8.94651714 6.62060547 8.60205078 C1.73273649 8.80542952 -1.29416744 10.15430401 -5.12548828 13.13330078 C-6.87939453 14.22705078 -6.87939453 14.22705078 -10.87939453 14.22705078 C-9.78187223 11.23380815 -9.20256561 10.38094177 -6.25439453 8.97705078 C-5.47064453 8.72955078 -4.68689453 8.48205078 -3.87939453 8.22705078 C-3.92064453 7.27830078 -3.96189453 6.32955078 -4.00439453 5.35205078 C-3.86973517 1.98556678 -3.58420249 0.43300965 0 0 Z " fill="#07080A" transform="translate(20.87939453125,8.77294921875)"/>
<path d="M0 0 C12.21 0 24.42 0 37 0 C37 5.28 37 10.56 37 16 C34.69 16 32.38 16 30 16 C30 16.66 30 17.32 30 18 C32.31 18 34.62 18 37 18 C37 19.32 37 20.64 37 22 C34.03 22.495 34.03 22.495 31 23 C31 23.33 31 23.66 31 24 C32.98 24.33 34.96 24.66 37 25 C37 25.99 37 26.98 37 28 C35.20841511 28.02696365 33.41671527 28.04637917 31.625 28.0625 C30.62726563 28.07410156 29.62953125 28.08570312 28.6015625 28.09765625 C26 28 26 28 24 27 C21.30986661 26.81295596 18.70313823 26.91418609 16 27 C15.67 27.33 15.34 27.66 15 28 C12.4672235 28.07320163 9.96896082 28.09227569 7.4375 28.0625 C4.983125 28.041875 2.52875 28.02125 0 28 C0 18.76 0 9.52 0 0 Z " fill="#84AAD5" transform="translate(45,45)"/>
<path d="M0 0 C5.37022652 3.16602907 9.19568273 7.28091049 11.65625 13.046875 C11.88671875 15.30078125 11.88671875 15.30078125 11.84375 17.609375 C11.83730469 18.37378906 11.83085938 19.13820313 11.82421875 19.92578125 C11.65625 22.046875 11.65625 22.046875 10.65625 25.046875 C9.81030273 25.02947266 9.81030273 25.02947266 8.94726562 25.01171875 C-2.18171389 24.53316716 -2.18171389 24.53316716 -12.453125 27.89453125 C-14.34799238 29.85509659 -15.9248018 31.72255313 -17.34375 34.046875 C-22.11637116 31.85027112 -24.48760535 29.01600769 -26.59375 24.171875 C-28.12365174 17.7972844 -27.48151189 12.15476612 -25.34375 6.046875 C-23.15625 4.296875 -23.15625 4.296875 -20.34375 3.046875 C-19.3125 2.325 -18.28125 1.603125 -17.21875 0.859375 C-11.91303934 -2.12291988 -5.61357536 -2.28285398 0 0 Z " fill="#EBE9EA" transform="translate(35.34375,17.953125)"/>
<path d="M0 0 C0 5.28 0 10.56 0 16 C-2.31 16 -4.62 16 -7 16 C-7 16.66 -7 17.32 -7 18 C-4.03 17.67 -1.06 17.34 2 17 C2.33 11.72 2.66 6.44 3 1 C4.65 1 6.3 1 8 1 C8 9.91 8 18.82 8 28 C-5.75 28.125 -5.75 28.125 -8 27 C-9.91500303 26.84101146 -9.91500303 26.84101146 -12 26.875 C-12.70125 26.87242188 -13.4025 26.86984375 -14.125 26.8671875 C-16.09153775 26.88622764 -16.09153775 26.88622764 -18 28 C-20.6723621 28.13415472 -23.32250488 28.04318541 -26 28 C-26 27.34 -26 26.68 -26 26 C-25.34 26 -24.68 26 -24 26 C-24 25.01 -24 24.02 -24 23 C-24.66 23 -25.32 23 -26 23 C-25.34 21.35 -24.68 19.7 -24 18 C-19.38 18 -14.76 18 -10 18 C-10 17.34 -10 16.68 -10 16 C-13.63 16 -17.26 16 -21 16 C-19.62057755 14.37917862 -18.23764187 12.76125114 -16.83984375 11.15625 C-15.54836728 9.64267248 -14.29326414 8.0976625 -13.06640625 6.53125 C-12.40511719 5.7165625 -11.74382813 4.901875 -11.0625 4.0625 C-10.45535156 3.29035156 -9.84820313 2.51820312 -9.22265625 1.72265625 C-7 0 -7 0 0 0 Z " fill="#85ACD8" transform="translate(34,45)"/>
<path d="M0 0 C0 5.28 0 10.56 0 16 C-7.22835353 16.94282872 -13.77002974 16.89343739 -21 16 C-19.62057755 14.37917862 -18.23764187 12.76125114 -16.83984375 11.15625 C-15.54836728 9.64267248 -14.29326414 8.0976625 -13.06640625 6.53125 C-12.40511719 5.7165625 -11.74382813 4.901875 -11.0625 4.0625 C-10.45535156 3.29035156 -9.84820312 2.51820312 -9.22265625 1.72265625 C-7 0 -7 0 0 0 Z " fill="#D8E9F1" transform="translate(34,45)"/>
<path d="M0 0 C0.66 1.32 1.32 2.64 2 4 C0.68 5.32 -0.64 6.64 -2 8 C-1.566875 8.86625 -1.566875 8.86625 -1.125 9.75 C-0.08333333 11.83333333 0.95833333 13.91666667 2 16 C0 18 0 18 -2.6875 18.5625 C-7.0014833 17.8299368 -8.81127756 16.05885283 -11.6953125 12.8671875 C-13 11 -13 11 -13.3125 8.4375 C-10.2125153 2.68038555 -6.93244324 -0.99034903 0 0 Z " fill="#17191C" transform="translate(68,49)"/>
<path d="M0 0 C2 1.0625 2 1.0625 3 3 C3.48686939 6.82540234 3.53974912 9.08477323 1.5625 12.4375 C-2.16406111 14.70979336 -5.7302999 14.52829961 -10 14 C-11.65766798 12.34233202 -11.21049503 10.39653595 -11.25 8.125 C-11.27578125 7.24070312 -11.3015625 6.35640625 -11.328125 5.4453125 C-11 3 -11 3 -9.734375 1.203125 C-6.69178507 -0.90750044 -3.55176103 -0.52536465 0 0 Z " fill="#234175" transform="translate(69,74)"/>
<path d="M0 0 C4.36689189 1.42398649 4.36689189 1.42398649 5.875 3.9375 C6.37530235 7.86844707 6.4746142 10.0380787 4.25 13.375 C1.15814769 15.40911336 -0.48867425 15.54355429 -4.125 14.9375 C-6.5 13.375 -6.5 13.375 -8.125 10.9375 C-8.6875 7.4375 -8.6875 7.4375 -8.125 3.9375 C-5.45043116 0.79094842 -4.15592269 -0.08311845 0 0 Z " fill="#223F72" transform="translate(23.125,73.0625)"/>
<path d="M0 0 C0.33 0 0.66 0 1 0 C1 8.91 1 17.82 1 27 C6.94 26.67 12.88 26.34 19 26 C16.75 30.5 16.75 30.5 13 32 C13 31.01 13 30.02 13 29 C9.04 29 5.08 29 1 29 C0.67 29.99 0.34 30.98 0 32 C-0.33 31.34 -0.66 30.68 -1 30 C-3.8159849 29.53101037 -3.8159849 29.53101037 -7.0625 29.375 C-8.16722656 29.30023438 -9.27195312 29.22546875 -10.41015625 29.1484375 C-11.26480469 29.09945312 -12.11945312 29.05046875 -13 29 C-13 29.66 -13 30.32 -13 31 C-14.9375 30.1875 -14.9375 30.1875 -17 29 C-17.33 28.01 -17.66 27.02 -18 26 C-12.06 26.33 -6.12 26.66 0 27 C0 18.09 0 9.18 0 0 Z " fill="#010102" transform="translate(43,46)"/>
<path d="M0 0 C8.25 0 16.5 0 25 0 C25 1.32 25 2.64 25 4 C17.08 4 9.16 4 1 4 C0.67 2.68 0.34 1.36 0 0 Z " fill="#000000" transform="translate(48,22)"/>
<path d="M0 0 C8.58 0 17.16 0 26 0 C26 0.99 26 1.98 26 3 C17.42 3 8.84 3 0 3 C0 2.01 0 1.02 0 0 Z " fill="#000000" transform="translate(53,29)"/>
<path d="M0 0 C0.66 1.32 1.32 2.64 2 4 C-0.52788007 6.79872437 -2.20411134 8.45773019 -6 9 C-5.1875 7.0625 -5.1875 7.0625 -4 5 C-3.01 4.67 -2.02 4.34 -1 4 C-1 3.34 -1 2.68 -1 2 C-5.01232741 4.11761724 -7.22277079 6.4566386 -10 10 C-10.66 10 -11.32 10 -12 10 C-11.70197895 6.52308771 -10.9882377 4.98487704 -8.8125 2.1875 C-5.54121494 -0.35683282 -4.03884885 -0.46963359 0 0 Z " fill="#101113" transform="translate(68,49)"/>
<path d="M0 0 C1.4540625 0.0309375 1.4540625 0.0309375 2.9375 0.0625 C3.5625 2.9375 3.5625 2.9375 3.9375 6.0625 C3.2775 6.7225 2.6175 7.3825 1.9375 8.0625 C-2.61805556 7.50694444 -2.61805556 7.50694444 -4.0625 6.0625 C-4.1875 3.5625 -4.1875 3.5625 -4.0625 1.0625 C-3.0625 0.0625 -3.0625 0.0625 0 0 Z " fill="#414246" transform="translate(22.0625,76.9375)"/>
<path d="M0 0 C0.99 0 1.98 0 3 0 C3.02687279 1.81242052 3.04633715 3.62495233 3.0625 5.4375 C3.07410156 6.44683594 3.08570313 7.45617188 3.09765625 8.49609375 C3 11 3 11 2 12 C0.00041636 12.04080783 -2.00045254 12.04254356 -4 12 C-4 11.01 -4 10.02 -4 9 C-2.68 9 -1.36 9 0 9 C0 6.03 0 3.06 0 0 Z " fill="#252525" transform="translate(26,26)"/>
<path d="M0 0 C0.66 1.32 1.32 2.64 2 4 C3.65 3.67 5.3 3.34 7 3 C6.67 3.99 6.34 4.98 6 6 C5.01 6 4.02 6 3 6 C3.22816406 6.54269531 3.45632813 7.08539063 3.69140625 7.64453125 C3.97886719 8.35996094 4.26632813 9.07539062 4.5625 9.8125 C4.85253906 10.52019531 5.14257812 11.22789063 5.44140625 11.95703125 C6 14 6 14 5 17 C0.55721778 11.74943919 -0.2706664 6.76666011 0 0 Z " fill="#9E9CA7" transform="translate(8,32)"/>
<path d="M0 0 C4.95 0 9.9 0 15 0 C15 0.99 15 1.98 15 3 C10.05 3 5.1 3 0 3 C0 2.01 0 1.02 0 0 Z " fill="#000000" transform="translate(51,35)"/>
<path d="M0 0 C0 0.66 0 1.32 0 2 C-2 3.625 -2 3.625 -4 5 C-3.44271087 8.34373475 -2.64826111 11.03312999 -1 14 C-4.36591866 12.55746343 -6.51047079 10.66735273 -9 8 C-7.13554727 3.64961029 -5.02378599 0 0 0 Z " fill="#D6D4D4" transform="translate(67,51)"/>
<path d="M0 0 C3.63 0 7.26 0 11 0 C10.67 1.32 10.34 2.64 10 4 C6.7 4 3.4 4 0 4 C0 2.68 0 1.36 0 0 Z " fill="#7395BB" transform="translate(45,75)"/>
<path d="M0 0 C4.62 0 9.24 0 14 0 C14 0.99 14 1.98 14 3 C9.38 3 4.76 3 0 3 C0 2.01 0 1.02 0 0 Z " fill="#F3C45E" transform="translate(21,12)"/>
<path d="M0 0 C1.99954746 -0.04254356 4.00041636 -0.04080783 6 0 C7 1 7 1 7.0625 3.5625 C7.041875 4.366875 7.02125 5.17125 7 6 C5.02 6.99 5.02 6.99 3 8 C3.33 6.35 3.66 4.7 4 3 C2.35 3.33 0.7 3.66 -1 4 C-0.67 2.68 -0.34 1.36 0 0 Z " fill="#040609" transform="translate(62,77)"/>
<path d="M0 0 C3.63 0 7.26 0 11 0 C11 0.99 11 1.98 11 3 C7.7 3 4.4 3 1 3 C0.67 2.01 0.34 1.02 0 0 Z " fill="#81A7D2" transform="translate(31,76)"/>
<path d="M0 0 C0.66 0.33 1.32 0.66 2 1 C1.2628641 2.29905098 0.50969444 3.58901122 -0.25 4.875 C-0.87648438 5.95394531 -0.87648438 5.95394531 -1.515625 7.0546875 C-3.15928076 9.20874162 -4.51567335 9.99140585 -7 11 C-6.8125 7.6875 -6.8125 7.6875 -6 4 C-3.5 2.125 -3.5 2.125 -1 1 C-0.67 0.67 -0.34 0.34 0 0 Z " fill="#CCCADA" transform="translate(16,20)"/>
<path d="M0 0 C2.64 0 5.28 0 8 0 C8 1.32 8 2.64 8 4 C5.69 4 3.38 4 1 4 C0.67 2.68 0.34 1.36 0 0 Z " fill="#7394BA" transform="translate(74,75)"/>
<path d="M0 0 C0.33 0.99 0.66 1.98 1 3 C2.32 3 3.64 3 5 3 C5 2.34 5 1.68 5 1 C5.66 1 6.32 1 7 1 C6.67 2.32 6.34 3.64 6 5 C3.625 5.625 3.625 5.625 1 6 C0.34 5.34 -0.32 4.68 -1 4 C-0.625 1.875 -0.625 1.875 0 0 Z " fill="#05070B" transform="translate(19,79)"/>
<path d="M0 0 C2.97 0 5.94 0 9 0 C9 0.99 9 1.98 9 3 C6.03 3 3.06 3 0 3 C0 2.01 0 1.02 0 0 Z " fill="#000000" transform="translate(68,35)"/>
<path d="M0 0 C4.29 0 8.58 0 13 0 C13 0.33 13 0.66 13 1 C9.37 1.33 5.74 1.66 2 2 C1.67 3.98 1.34 5.96 1 8 C0.67 7.01 0.34 6.02 0 5 C-0.66 5 -1.32 5 -2 5 C-1.34 3.35 -0.68 1.7 0 0 Z " fill="#58779C" transform="translate(10,63)"/>
<path d="M0 0 C2.64 0 5.28 0 8 0 C8 0.99 8 1.98 8 3 C5.36 3 2.72 3 0 3 C0 2.01 0 1.02 0 0 Z " fill="#000000" transform="translate(87,53)"/>
<path d="M0 0 C0.99 0.33 1.98 0.66 3 1 C2.34 2.65 1.68 4.3 1 6 C-0.32 5.34 -1.64 4.68 -3 4 C-2.67 3.01 -2.34 2.02 -2 1 C-1.34 0.67 -0.68 0.34 0 0 Z " fill="#505156" transform="translate(64,79)"/>
<path d="M0 0 C8.57142857 -0.28571429 8.57142857 -0.28571429 12 2 C11.34 2.66 10.68 3.32 10 4 C3.82215289 3.66302652 3.82215289 3.66302652 1.0625 1.4375 C0.711875 0.963125 0.36125 0.48875 0 0 Z " fill="#2F2715" transform="translate(23,14)"/>
<path d="M0 0 C2.31 0 4.62 0 7 0 C7 0.99 7 1.98 7 3 C4.69 3 2.38 3 0 3 C0 2.01 0 1.02 0 0 Z " fill="#000000" transform="translate(88,67)"/>
<path d="M0 0 C2.31 0 4.62 0 7 0 C7 0.99 7 1.98 7 3 C4.69 3 2.38 3 0 3 C0 2.01 0 1.02 0 0 Z " fill="#1A222A" transform="translate(73,56)"/>
<path d="M0 0 C4.875 4.625 4.875 4.625 6 8 C3.11562221 6.70700306 1.12780579 5.34058637 -1 3 C-0.67 2.01 -0.34 1.02 0 0 Z " fill="#EFEDED" transform="translate(60,57)"/>
<path d="M0 0 C0.33 0 0.66 0 1 0 C1.66 3.3 2.32 6.6 3 10 C2.01 10 1.02 10 0 10 C0 6.7 0 3.4 0 0 Z " fill="#1D3361" transform="translate(58,77)"/>
</svg>
